<?xml version="1.0" encoding="UTF-8"?>
<svg id="Camada_1" data-name="Camada 1" xmlns="http://www.w3.org/2000/svg" xmlns:xlink="http://www.w3.org/1999/xlink" viewBox="0 0 247.06 234.61">
  <defs>
    <style>
      .cls-1 {
        fill: #fff;
      }

      .cls-2 {
        fill: #f4b810;
      }

      .cls-3 {
        fill: #cd970f;
      }

      .cls-4 {
        clip-path: url(#clippath);
      }

      .cls-5 {
        fill: none;
      }

      .cls-6 {
        fill: #0f75bc;
      }

      .cls-7 {
        fill: #a5b2b8;
      }
    </style>
    <clipPath id="clippath">
      <circle class="cls-5" cx="117.31" cy="117.31" r="88.64"/>
    </clipPath>
  </defs>
  <circle class="cls-3" cx="129.76" cy="117.31" r="117.31"/>
  <circle class="cls-2" cx="117.31" cy="117.31" r="117.31"/>
  <circle class="cls-1" cx="117.31" cy="117.31" r="93.47"/>
  <g class="cls-4">
    <g>
      <path class="cls-7" d="m110.73,30.9c-2.8,1.45-5.56,2.86-8.15,4.54-8.53,5.51-14.55,13.03-18.79,22-1.95,4.12-3.46,8.41-4.29,12.85-1.08,5.71-1.19,11.5-.25,17.26,1.39,8.52,4.39,16.47,9.4,23.62,5.85,8.35,13.81,14.1,23.56,17.51,3.57,1.25,7.3,1.83,11.05,2.33,4.22.56,8.45.43,12.67.36,3.76-.06,7.53-.31,11.3-.44,3.15-.11,6.31-.22,9.46-.45,4.01-.29,8.03-.28,12.03-.13,5.43.2,10.89.49,15.99,2.62,1.4.58,2.66,1.44,3.96,2.2,2.7,1.58,4.66,3.74,6.28,6.24,2.41,3.71,3.72,7.79,4.02,12.21.25,3.62-.28,7.05-1.81,10.33-2.15,4.63-5.48,8.27-10.06,10.74-3.46,1.86-7.11,3.19-11.03,3.94-3.35.64-6.69.82-10.06.8-2.02,0-3.93-.72-5.85-1.24-7.08-1.92-12.35-6.3-16.77-11.81-.35-.44-.68-.89-1.01-1.35-1.08-1.5-1.4-1.5-3.13-.68-1.57.74-3.24,1.3-4.88,1.89-7.09,2.56-14.18,5.11-21.27,7.66-2.47.89-2.44.87-1.5,3.28,1.72,4.38,3.39,8.77,5.08,13.15,1.94,5.05,3.87,10.1,5.82,15.14.46,1.21.47,1.24-.88,1.21-18.98-.41-37.97-.07-56.95-.17-8.12-.04-16.24.05-24.35-.08-3.59-.05-6.48-1.79-8.74-4.45-1.83-2.15-2.91-4.69-2.89-7.45.39-50.48.04-100.95.14-151.43,0-3.56,1.37-6.53,3.87-8.98,1.99-1.95,4.56-2.86,7.35-3.17.64-.07,1.3-.04,1.95-.04,22.36,0,44.73,0,67.09,0,.55,0,1.11,0,1.66,0Z"/>
      <path class="cls-7" d="m183.19,30.94c5.09,0,10.16-.27,15.18.07,6.34.43,11,5.65,11.14,11.66.02.97.04,1.93.04,2.9,0,19.64,0,39.28,0,58.93,0,.22-.02.45,0,.67.11.95-.29.88-.95.5-3.18-1.82-6.58-3.25-10.09-4.22-3.87-1.07-7.7-2.29-11.78-2.71-2.86-.3-5.72-.89-8.6-1.19-1.84-.19-3.7-.39-5.55-.47-7.6-.3-15.21-.43-22.8.04-4.32.27-8.64.19-12.95.11-2.46-.05-4.92-.45-7.38-.76-5.31-.68-9.47-3.27-12.77-7.18-1.77-2.1-2.6-4.74-3.38-7.33-1.17-3.92-1.28-7.88.4-11.65,1.98-4.46,5.26-7.85,9.81-9.98,8.49-3.99,16.93-3.78,25.32.27,4.24,2.05,7.97,4.8,11.32,8.04.65.63,1.17.81,2.08.47,5.34-1.99,10.74-3.84,16.06-5.89,4.12-1.58,8.36-2.87,12.39-4.68.27-.12.56-.23.85-.31,1.9-.5,1.94-.51,1.28-2.24-1.3-3.45-2.49-6.94-4.03-10.29-1.27-2.77-2.21-5.65-3.31-8.47-.79-2.03-1.98-3.94-2.28-6.27Z"/>
      <path class="cls-6" d="m209.5,198.3c-.02,4.99-3.65,8.07-8.31,8.34-4.83.28-8.18-3.99-8.45-7.76-.39-5.54,4.25-8.73,8.33-8.69,5.6.06,8.58,4.29,8.43,8.11Z"/>
      <path class="cls-6" d="m178.74,196.38c3.6,0,6.17,2.5,6.17,6.01,0,3.47-2.65,6.04-6.18,6.12-3.18.07-6.37-2.31-6.45-6.17-.06-3.11,3.03-6.39,6.45-5.96Z"/>
      <path class="cls-6" d="m164,202.56c.41,2.27-2.12,3.96-3.96,3.94-2.75-.03-4.27-2.05-4.5-4.15-.21-1.91,2.13-3.95,4.24-3.95,2.75,0,4.21,1.44,4.22,4.17Z"/>
    </g>
  </g>
  <g>
    <path class="cls-1" d="m65.09,148.07c.05-5.44,4.48-8.7,7.93-9,7.08-.62,10.4,4.94,10.34,9.08-.06,4.92-3.93,9.18-9.43,9.07-4.79-.1-8.81-3.96-8.84-9.15Zm9.1-6.69c-3.97,0-6.94,2.92-6.76,7.08.16,3.74,2.94,6.39,6.77,6.46,3.51.06,7.09-2.76,6.79-7.43-.24-3.7-3.88-6.53-6.8-6.11Z"/>
    <path class="cls-1" d="m153.15,156.99c-2.36-.03-3.99-.26-5.44-1.19-1.17-.75-1.75-1.91-2.09-3.2-.15-.59.18-1.07.72-1.2.84-.21,1.36.03,1.55.71.5,1.77,1.46,2.5,3.25,2.4.37-.02.53.35.87.32,1.31-.12,2.66-.09,3.85-.72,1.39-.74,1.43-2.52.1-3.35-1.07-.66-2.3-.92-3.46-1.34-1.55-.57-3.16-1-4.58-1.89-1.34-.85-2.25-1.96-2.16-3.65.1-1.75.79-3.17,2.43-3.96,1.7-.82,3.5-1.06,5.38-.85.94.11,1.83.28,2.68.68,1.64.77,2.44,2.14,2.67,3.87.17,1.25.08,1.29-1.08,1.54-.54.12-.79-.16-.95-.57-.11-.26-.13-.55-.2-.83-.4-1.58-1.28-2.19-2.88-2.39-1.27-.15-2.49-.17-3.7.2-.64.19-1.27.43-1.64,1.05-.72,1.22-.44,2.34.83,3.15.89.57,1.89.88,2.89,1.21,1.51.5,3.07.84,4.48,1.59,1.07.56,1.98,1.26,2.33,2.53.6,2.19-.33,4.28-2.43,5.18-1.3.56-2.67.77-3.4.74Z"/>
    <path class="cls-1" d="m53.43,156.94c-1.87-.03-3.6-.19-5.1-1.28-1.06-.77-1.49-1.94-1.96-3.07-.2-.49.28-1.07.84-1.19.91-.19,1.34.02,1.54.8.28,1.09.88,1.87,1.98,2.22,1.99.63,3.94.51,5.85-.28.65-.27,1.03-.78,1.09-1.54.07-.88-.18-1.51-.99-1.93-1.47-.76-3.05-1.18-4.6-1.71-1.24-.43-2.45-.9-3.57-1.59-3.1-1.92-1.97-6.39.44-7.46,1.07-.47,2.17-.71,3.33-.85,1.32-.17,2.56.05,3.82.31,2.15.45,3.83,2.69,3.71,4.88-.03.54-.31.8-.78.84-.54.04-1.13.13-1.35-.59-.07-.23-.1-.46-.15-.7-.34-1.55-1-2.14-2.9-2.45-1.38-.23-2.72-.11-4.04.32-.95.31-1.51.94-1.65,1.95-.13,1,.41,1.62,1.17,2.12,1.02.66,2.17,1.01,3.32,1.37,1.37.42,2.77.79,4.05,1.45,1.12.57,2.12,1.28,2.36,2.66.4,2.33-.32,4.15-2.55,5.1-1.27.54-2.61.59-3.86.64Z"/>
    <path class="cls-1" d="m103.56,145.47c0-1.72,0-3.43,0-5.15,0-1.06.27-1.38,1.16-1.38.85,0,1.14.36,1.15,1.41,0,3.27-.01,6.53,0,9.8.01,2.56,2.21,4.75,4.75,4.65,2.5-.1,4.52-2.02,4.54-4.57.03-2.86.02-5.72,0-8.58,0-.6-.13-1.19.03-1.8.19-.75.52-.99,1.42-.92.67.05.87.5.87,1.08,0,3.5.05,7.01-.01,10.51-.05,3.06-2.41,5.76-5.46,6.42-3.41.73-6.71-1.04-8.1-4.47-.23-.56-.38-1.2-.36-1.86.04-1.72.01-3.43,0-5.15Z"/>
    <path class="cls-1" d="m129.04,148.94c0,2.34,0,4.67,0,7.01,0,.59-.27.95-.81,1.21-.48.23-.79,0-1.1-.23-.37-.28-.4-.72-.4-1.17,0-4.53-.01-9.06.02-13.59,0-.67-.19-.85-.82-.8-.69.05-1.38.02-2.07,0-.76-.01-1.29-.5-1.27-1.16.02-.61.55-1.12,1.25-1.12,2.67-.01,5.34-.01,8.01,0,.72,0,1.19.5,1.18,1.16-.01.66-.49,1.11-1.22,1.12-.74.01-1.48.03-2.22,0-.44-.02-.57.12-.56.56.02,2.34,0,4.67,0,7.01Z"/>
    <path class="cls-1" d="m88.49,148.09c0-2.57,0-5.15,0-7.72,0-.92.4-1.41,1.12-1.43.73-.01,1.2.55,1.2,1.46,0,4.55.02,9.1-.02,13.65,0,.68.2.82.83.8,1.79-.04,3.57-.02,5.36,0,.95,0,1.46.45,1.45,1.2,0,.6-.4,1.09-.99,1.09-2.64.02-5.29.03-7.93,0-.71,0-1.01-.42-1.02-1.27,0-2.45,0-4.91,0-7.36,0-.14,0-.29,0-.43Z"/>
    <path class="cls-1" d="m138.16,148.03c0-2.57,0-5.15,0-7.72,0-1.02.31-1.37,1.19-1.37.78,0,1.12.42,1.12,1.39,0,5.12,0,10.24,0,15.36,0,.17.02.34-.01.5-.13.71-.67,1.08-1.32,1.03-.57-.04-.97-.47-.98-1.12,0-1.02,0-2.05,0-3.07,0-1.67,0-3.33,0-5Z"/>
  </g>
</svg>