<?xml version="1.0" encoding="UTF-8"?>
<svg xmlns="http://www.w3.org/2000/svg" xmlns:xlink="http://www.w3.org/1999/xlink" viewBox="0 0 322.32 305.49">
  <defs>
    <style>
      .cls-1 {
        fill: url(#Degradado_sin_nombre_14-3);
      }

      .cls-2 {
        fill: #fff;
      }

      .cls-3, .cls-4 {
        fill: #fbb900;
        mix-blend-mode: multiply;
      }

      .cls-5 {
        fill: url(#Degradado_sin_nombre_9-4);
      }

      .cls-6 {
        isolation: isolate;
      }

      .cls-7 {
        stroke: url(#Degradado_sin_nombre_4-2);
      }

      .cls-7, .cls-8 {
        stroke-miterlimit: 10;
        stroke-width: 3px;
      }

      .cls-7, .cls-8, .cls-9 {
        fill: none;
      }

      .cls-10 {
        mix-blend-mode: overlay;
        opacity: .49;
      }

      .cls-10, .cls-11 {
        fill: #f4b810;
      }

      .cls-12 {
        fill: url(#Degradado_sin_nombre_14-4);
      }

      .cls-13 {
        fill: url(#Degradado_sin_nombre_9-5);
      }

      .cls-14 {
        clip-path: url(#clippath-1);
      }

      .cls-15 {
        fill: url(#Degradado_sin_nombre_9-2);
      }

      .cls-16 {
        fill: #ffe7c5;
      }

      .cls-16, .cls-17 {
        opacity: .5;
      }

      .cls-18 {
        fill: url(#Degradado_sin_nombre_4-3);
      }

      .cls-19 {
        fill: url(#Degradado_sin_nombre_14);
      }

      .cls-20 {
        fill: url(#Degradado_sin_nombre_9-7);
      }

      .cls-21 {
        fill: url(#Degradado_sin_nombre_9-3);
      }

      .cls-22 {
        fill: url(#Degradado_sin_nombre_2);
      }

      .cls-23 {
        fill: #fdc951;
      }

      .cls-24 {
        fill: url(#Degradado_sin_nombre_9-6);
      }

      .cls-25 {
        fill: #cd970f;
      }

      .cls-8 {
        stroke: url(#Degradado_sin_nombre_4);
      }

      .cls-26 {
        clip-path: url(#clippath);
      }

      .cls-4 {
        opacity: .3;
      }

      .cls-27 {
        fill: #0f75bc;
      }

      .cls-28 {
        fill: url(#Degradado_sin_nombre_9);
      }

      .cls-17 {
        fill: #ffe4b4;
      }

      .cls-29 {
        fill: url(#Degradado_sin_nombre_9-8);
      }

      .cls-30 {
        fill: url(#Degradado_sin_nombre_4-4);
      }

      .cls-31 {
        fill: url(#Degradado_sin_nombre_4-5);
      }

      .cls-32 {
        fill: url(#Degradado_sin_nombre_2-2);
      }

      .cls-33 {
        fill: url(#Degradado_sin_nombre_14-2);
      }
    </style>
    <linearGradient id="Degradado_sin_nombre_4" data-name="Degradado sin nombre 4" x1="193.96" y1="242.51" x2="283.82" y2="242.51" gradientUnits="userSpaceOnUse">
      <stop offset="0" stop-color="#47467a"/>
      <stop offset="1" stop-color="#373665"/>
    </linearGradient>
    <linearGradient id="Degradado_sin_nombre_4-2" data-name="Degradado sin nombre 4" x1="458.58" y1="672.62" x2="477.67" y2="672.62" gradientTransform="translate(677.04 -725.6) rotate(65.22) scale(.89 1.12) skewX(24.12)" xlink:href="#Degradado_sin_nombre_4"/>
    <linearGradient id="Degradado_sin_nombre_14" data-name="Degradado sin nombre 14" x1="0" y1="253.27" x2="95.82" y2="253.27" gradientUnits="userSpaceOnUse">
      <stop offset="0" stop-color="#c4ceea"/>
      <stop offset="1" stop-color="#9fb1dc"/>
    </linearGradient>
    <linearGradient id="Degradado_sin_nombre_14-2" data-name="Degradado sin nombre 14" x1="23.21" y1="195.33" x2="72.62" y2="195.33" xlink:href="#Degradado_sin_nombre_14"/>
    <linearGradient id="Degradado_sin_nombre_4-3" data-name="Degradado sin nombre 4" x1="31.72" y1="254.92" x2="64.1" y2="254.92" xlink:href="#Degradado_sin_nombre_4"/>
    <linearGradient id="Degradado_sin_nombre_14-3" data-name="Degradado sin nombre 14" x1="32.66" y1="189.95" x2="43.52" y2="189.95" xlink:href="#Degradado_sin_nombre_14"/>
    <linearGradient id="Degradado_sin_nombre_2" data-name="Degradado sin nombre 2" x1="23.21" y1="189.95" x2="72.62" y2="189.95" gradientUnits="userSpaceOnUse">
      <stop offset="0" stop-color="#9fb1dc"/>
      <stop offset="1" stop-color="#c4ceea"/>
    </linearGradient>
    <linearGradient id="Degradado_sin_nombre_14-4" data-name="Degradado sin nombre 14" x1="49.1" y1="190.62" x2="69.6" y2="190.62" xlink:href="#Degradado_sin_nombre_14"/>
    <linearGradient id="Degradado_sin_nombre_2-2" data-name="Degradado sin nombre 2" x1="23.21" y1="190.62" x2="72.62" y2="190.62" xlink:href="#Degradado_sin_nombre_2"/>
    <linearGradient id="Degradado_sin_nombre_4-4" data-name="Degradado sin nombre 4" x1="33.83" y1="201.95" x2="62.31" y2="201.95" xlink:href="#Degradado_sin_nombre_4"/>
    <linearGradient id="Degradado_sin_nombre_4-5" data-name="Degradado sin nombre 4" x1="36.08" y1="303.84" x2="64.56" y2="303.84" gradientTransform="translate(25.94 -102.04) rotate(5.31)" xlink:href="#Degradado_sin_nombre_4"/>
    <linearGradient id="Degradado_sin_nombre_9" data-name="Degradado sin nombre 9" x1="232.8" y1="296.55" x2="289.38" y2="296.55" gradientUnits="userSpaceOnUse">
      <stop offset="0" stop-color="#fbbb00"/>
      <stop offset="1" stop-color="#f49618"/>
    </linearGradient>
    <linearGradient id="Degradado_sin_nombre_9-2" data-name="Degradado sin nombre 9" x1="162.23" x2="218.82" xlink:href="#Degradado_sin_nombre_9"/>
    <linearGradient id="Degradado_sin_nombre_9-3" data-name="Degradado sin nombre 9" x1="75.4" x2="131.98" xlink:href="#Degradado_sin_nombre_9"/>
    <linearGradient id="Degradado_sin_nombre_9-4" data-name="Degradado sin nombre 9" x1="99.96" y1="283.32" x2="156.54" y2="283.32" xlink:href="#Degradado_sin_nombre_9"/>
    <linearGradient id="Degradado_sin_nombre_9-5" data-name="Degradado sin nombre 9" x1="91.31" y1="270.06" x2="147.89" y2="270.06" xlink:href="#Degradado_sin_nombre_9"/>
    <linearGradient id="Degradado_sin_nombre_9-6" data-name="Degradado sin nombre 9" x1="243.19" y1="283.32" x2="299.77" y2="283.32" xlink:href="#Degradado_sin_nombre_9"/>
    <linearGradient id="Degradado_sin_nombre_9-7" data-name="Degradado sin nombre 9" x1="240.69" y1="270.06" x2="297.27" y2="270.06" xlink:href="#Degradado_sin_nombre_9"/>
    <linearGradient id="Degradado_sin_nombre_9-8" data-name="Degradado sin nombre 9" x1="251.08" y1="256.82" x2="307.66" y2="256.82" xlink:href="#Degradado_sin_nombre_9"/>
    <clipPath id="clippath">
      <circle class="cls-9" cx="171.94" cy="131.02" r="80.39"/>
    </clipPath>
    <clipPath id="clippath-1">
      <circle class="cls-9" cx="171.94" cy="131.02" r="106.4"/>
    </clipPath>
  </defs>
  <g class="cls-6">
    <g id="Camada_1" data-name="Camada 1">
      <g>
        <g>
          <polyline class="cls-8" points="194.27 275.21 214.7 270.85 218.72 251.22 239.95 250.02 245.95 231.53 264.6 230.96 282.67 209.3"/>
          <polyline class="cls-7" points="270.61 211.75 283.35 208.46 281.58 221.02"/>
        </g>
        <g>
          <path class="cls-19" d="m58.14,202.85l-.29-.03v-1.77l-9.94.89-9.94-.89v1.77l-.29.03S-5.24,236.55.54,286.9c0,0-1.2,19.32,47.38,18.56,48.57.76,47.38-18.56,47.38-18.56,5.78-50.36-37.15-84.06-37.15-84.06Z"/>
          <path class="cls-33" d="m59.42,179.31c-4.77.45-8.08-1.45-9.89-2.93-.96-.79-2.28-.79-3.24,0-1.81,1.48-5.12,3.39-9.89,2.93-7.61-.72-11.84-2.01-13.2.77l15.74,26.97,8.97,7.83,8.97-7.83,15.74-26.97c-1.35-2.78-5.58-1.49-13.2-.77Z"/>
          <path class="cls-18" d="m51.14,274.84v6.23h-5.56v-6.06c-5.51-.33-10.79-2.06-13.85-4.45l3.06-6.79c2.78,2.06,6.79,3.56,10.79,3.95v-9.29c-6.18-1.5-13.07-3.56-13.07-11.52,0-5.9,4.28-10.96,13.07-11.96v-6.18h5.56v6.07c4.17.33,8.23,1.45,11.29,3.39l-2.78,6.84c-2.84-1.61-5.73-2.56-8.51-2.89v9.46c6.18,1.45,12.96,3.5,12.96,11.35,0,5.78-4.23,10.79-12.96,11.85Zm-5.56-24.59v-7.9c-2.95.67-4.12,2.28-4.12,4.12,0,1.95,1.67,3,4.12,3.78Zm9.57,13.41c0-1.95-1.61-3-4.01-3.84v7.68c2.78-.61,4.01-2.06,4.01-3.84Z"/>
          <path class="cls-1" d="m41.55,178.86c-1.47.42-3.18.64-5.15.45-.98-.09-1.91-.2-2.78-.3l9.89,22.04-1.96-22.19Z"/>
          <path class="cls-22" d="m41.55,178.86c-1.47.42-3.18.64-5.15.45-.98-.09-1.91-.2-2.78-.3l9.89,22.04-1.96-22.19Z"/>
          <path class="cls-12" d="m52.54,202.85l15.41-24.45c-2.14.11-4.96.57-8.54.91-2.5.24-4.59-.18-6.28-.83l-4.03,22.57,3.44,1.8Z"/>
          <path class="cls-32" d="m52.54,202.85l15.41-24.45c-2.14.11-4.96.57-8.54.91-2.5.24-4.59-.18-6.28-.83l-4.03,22.57,3.44,1.8Z"/>
          <g>
            <path class="cls-30" d="m35.89,204.91c-1.07,0-1.98-.83-2.06-1.91-.08-1.14.77-2.13,1.91-2.21l24.35-1.8c1.12-.09,2.13.77,2.21,1.91.08,1.14-.77,2.13-1.91,2.21l-24.35,1.8c-.05,0-.1,0-.15,0Z"/>
            <path class="cls-31" d="m60.12,207.44h-.04l-24.42-.47c-1.14-.02-2.05-.96-2.02-2.1.02-1.13.94-2.02,2.06-2.02h.04l24.42.47c1.14.02,2.05.96,2.02,2.1-.02,1.13-.94,2.02-2.06,2.02Z"/>
          </g>
        </g>
        <g>
          <g>
            <rect class="cls-28" x="232.8" y="289.94" width="56.58" height="13.24"/>
            <rect class="cls-23" x="232.8" y="289.94" width="56.58" height="1.9"/>
            <g>
              <rect class="cls-4" x="237.58" y="289.94" width="2.46" height="13.24"/>
              <rect class="cls-4" x="245.01" y="289.94" width="2.46" height="13.24"/>
              <rect class="cls-4" x="252.43" y="289.94" width="2.46" height="13.24"/>
              <rect class="cls-3" x="259.86" y="289.94" width="2.46" height="13.24"/>
              <rect class="cls-3" x="267.29" y="289.94" width="2.46" height="13.24"/>
              <rect class="cls-3" x="274.71" y="289.94" width="2.46" height="13.24"/>
              <rect class="cls-3" x="282.14" y="289.94" width="2.46" height="13.24"/>
            </g>
            <rect class="cls-17" x="254.6" y="289.94" width="30.96" height="13.24"/>
            <rect class="cls-16" x="277.71" y="289.94" width="7.85" height="13.24"/>
          </g>
          <g>
            <rect class="cls-15" x="162.23" y="289.94" width="56.58" height="13.24"/>
            <rect class="cls-23" x="162.23" y="289.94" width="56.58" height="1.9"/>
            <g>
              <rect class="cls-4" x="167.02" y="289.94" width="2.46" height="13.24"/>
              <rect class="cls-4" x="174.44" y="289.94" width="2.46" height="13.24"/>
              <rect class="cls-4" x="181.87" y="289.94" width="2.46" height="13.24"/>
              <rect class="cls-3" x="189.3" y="289.94" width="2.46" height="13.24"/>
              <rect class="cls-3" x="196.72" y="289.94" width="2.46" height="13.24"/>
              <rect class="cls-3" x="204.15" y="289.94" width="2.46" height="13.24"/>
              <rect class="cls-3" x="211.58" y="289.94" width="2.46" height="13.24"/>
            </g>
            <rect class="cls-17" x="184.03" y="289.94" width="30.96" height="13.24"/>
            <rect class="cls-16" x="207.14" y="289.94" width="7.85" height="13.24"/>
          </g>
          <g>
            <rect class="cls-21" x="75.4" y="289.94" width="56.58" height="13.24"/>
            <rect class="cls-23" x="75.4" y="289.94" width="56.58" height="1.9"/>
            <g>
              <rect class="cls-4" x="80.18" y="289.94" width="2.46" height="13.24"/>
              <rect class="cls-4" x="87.61" y="289.94" width="2.46" height="13.24"/>
              <rect class="cls-4" x="95.03" y="289.94" width="2.46" height="13.24"/>
              <rect class="cls-3" x="102.46" y="289.94" width="2.46" height="13.24"/>
              <rect class="cls-3" x="109.89" y="289.94" width="2.46" height="13.24"/>
              <rect class="cls-3" x="117.31" y="289.94" width="2.46" height="13.24"/>
              <rect class="cls-3" x="124.74" y="289.94" width="2.46" height="13.24"/>
            </g>
            <rect class="cls-17" x="97.2" y="289.94" width="30.96" height="13.24"/>
            <rect class="cls-16" x="120.31" y="289.94" width="7.85" height="13.24"/>
          </g>
          <g>
            <rect class="cls-5" x="99.96" y="276.7" width="56.58" height="13.24"/>
            <rect class="cls-23" x="99.96" y="276.7" width="56.58" height="1.9"/>
            <g>
              <rect class="cls-4" x="104.74" y="276.7" width="2.46" height="13.24"/>
              <rect class="cls-4" x="112.17" y="276.7" width="2.46" height="13.24"/>
              <rect class="cls-4" x="119.6" y="276.7" width="2.46" height="13.24"/>
              <rect class="cls-3" x="127.02" y="276.7" width="2.46" height="13.24"/>
              <rect class="cls-3" x="134.45" y="276.7" width="2.46" height="13.24"/>
              <rect class="cls-3" x="141.88" y="276.7" width="2.46" height="13.24"/>
              <rect class="cls-3" x="149.3" y="276.7" width="2.46" height="13.24"/>
            </g>
            <rect class="cls-17" x="121.76" y="276.7" width="30.96" height="13.24"/>
            <rect class="cls-16" x="144.87" y="276.7" width="7.85" height="13.24"/>
          </g>
          <g>
            <rect class="cls-13" x="91.31" y="263.44" width="56.58" height="13.24"/>
            <rect class="cls-23" x="91.31" y="263.44" width="56.58" height="1.9"/>
            <g>
              <rect class="cls-4" x="96.09" y="263.44" width="2.46" height="13.24"/>
              <rect class="cls-4" x="103.51" y="263.44" width="2.46" height="13.24"/>
              <rect class="cls-4" x="110.94" y="263.44" width="2.46" height="13.24"/>
              <rect class="cls-3" x="118.37" y="263.44" width="2.46" height="13.24"/>
              <rect class="cls-3" x="125.79" y="263.44" width="2.46" height="13.24"/>
              <rect class="cls-3" x="133.22" y="263.44" width="2.46" height="13.24"/>
              <rect class="cls-3" x="140.65" y="263.44" width="2.46" height="13.24"/>
            </g>
            <rect class="cls-17" x="113.11" y="263.44" width="30.96" height="13.24"/>
            <rect class="cls-16" x="136.22" y="263.44" width="7.85" height="13.24"/>
          </g>
          <g>
            <rect class="cls-24" x="243.19" y="276.7" width="56.58" height="13.24"/>
            <rect class="cls-23" x="243.19" y="276.7" width="56.58" height="1.9"/>
            <g>
              <rect class="cls-4" x="247.97" y="276.7" width="2.46" height="13.24"/>
              <rect class="cls-4" x="255.4" y="276.7" width="2.46" height="13.24"/>
              <rect class="cls-4" x="262.82" y="276.7" width="2.46" height="13.24"/>
              <rect class="cls-3" x="270.25" y="276.7" width="2.46" height="13.24"/>
              <rect class="cls-3" x="277.68" y="276.7" width="2.46" height="13.24"/>
              <rect class="cls-3" x="285.1" y="276.7" width="2.46" height="13.24"/>
              <rect class="cls-3" x="292.53" y="276.7" width="2.46" height="13.24"/>
            </g>
            <rect class="cls-17" x="264.99" y="276.7" width="30.96" height="13.24"/>
            <rect class="cls-16" x="288.1" y="276.7" width="7.85" height="13.24"/>
          </g>
          <g>
            <rect class="cls-20" x="240.69" y="263.44" width="56.58" height="13.24"/>
            <rect class="cls-23" x="240.69" y="263.44" width="56.58" height="1.9"/>
            <g>
              <rect class="cls-4" x="245.47" y="263.44" width="2.46" height="13.24"/>
              <rect class="cls-4" x="252.9" y="263.44" width="2.46" height="13.24"/>
              <rect class="cls-4" x="260.33" y="263.44" width="2.46" height="13.24"/>
              <rect class="cls-3" x="267.75" y="263.44" width="2.46" height="13.24"/>
              <rect class="cls-3" x="275.18" y="263.44" width="2.46" height="13.24"/>
              <rect class="cls-3" x="282.61" y="263.44" width="2.46" height="13.24"/>
              <rect class="cls-3" x="290.03" y="263.44" width="2.46" height="13.24"/>
            </g>
            <rect class="cls-17" x="262.49" y="263.44" width="30.96" height="13.24"/>
            <rect class="cls-16" x="285.6" y="263.44" width="7.85" height="13.24"/>
          </g>
          <g>
            <rect class="cls-29" x="251.08" y="250.2" width="56.58" height="13.24"/>
            <rect class="cls-23" x="251.08" y="250.2" width="56.58" height="1.9"/>
            <g>
              <rect class="cls-4" x="255.86" y="250.2" width="2.46" height="13.24"/>
              <rect class="cls-4" x="263.29" y="250.2" width="2.46" height="13.24"/>
              <rect class="cls-4" x="270.72" y="250.2" width="2.46" height="13.24"/>
              <rect class="cls-3" x="278.14" y="250.2" width="2.46" height="13.24"/>
              <rect class="cls-3" x="285.57" y="250.2" width="2.46" height="13.24"/>
              <rect class="cls-3" x="293" y="250.2" width="2.46" height="13.24"/>
              <rect class="cls-3" x="300.42" y="250.2" width="2.46" height="13.24"/>
            </g>
            <rect class="cls-17" x="272.88" y="250.2" width="30.96" height="13.24"/>
            <rect class="cls-16" x="295.99" y="250.2" width="7.85" height="13.24"/>
          </g>
        </g>
      </g>
      <g>
        <circle class="cls-25" cx="181.87" cy="130.12" r="106.4"/>
        <circle class="cls-11" cx="171.94" cy="131.02" r="106.4"/>
        <g>
          <circle class="cls-2" cx="171.94" cy="131.02" r="84.77"/>
          <g class="cls-26">
            <g>
              <path class="cls-27" d="m165.97,52.65c-2.54,1.32-5.04,2.59-7.4,4.12-7.73,5-13.2,11.82-17.04,19.95-1.77,3.74-3.13,7.62-3.89,11.65-.98,5.18-1.08,10.43-.23,15.65,1.26,7.73,3.98,14.93,8.53,21.42,5.31,7.57,12.52,12.79,21.36,15.88,3.24,1.13,6.62,1.66,10.03,2.11,3.83.5,7.67.39,11.49.33,3.41-.05,6.83-.28,10.25-.4,2.86-.1,5.73-.2,8.58-.41,3.64-.27,7.28-.25,10.91-.12,4.93.18,9.87.44,14.51,2.37,1.27.53,2.41,1.3,3.59,1.99,2.45,1.43,4.23,3.4,5.69,5.66,2.18,3.37,3.37,7.06,3.65,11.07.23,3.28-.25,6.4-1.64,9.37-1.95,4.2-4.97,7.5-9.13,9.74-3.13,1.69-6.45,2.89-10.01,3.57-3.04.58-6.07.74-9.13.73-1.83,0-3.56-.65-5.3-1.12-6.42-1.74-11.2-5.72-15.21-10.71-.32-.4-.62-.81-.92-1.23-.98-1.36-1.27-1.36-2.84-.62-1.43.67-2.94,1.18-4.43,1.72-6.43,2.33-12.86,4.64-19.29,6.95-2.24.81-2.21.79-1.36,2.97,1.56,3.97,3.08,7.95,4.61,11.93,1.76,4.58,3.51,9.16,5.27,13.73.42,1.1.43,1.12-.8,1.1-17.22-.37-34.44-.07-51.65-.16-7.36-.04-14.73.04-22.09-.07-3.25-.05-5.88-1.62-7.93-4.03-1.66-1.95-2.64-4.26-2.62-6.75.35-45.78.04-91.56.13-137.34,0-3.23,1.24-5.92,3.51-8.15,1.8-1.76,4.14-2.6,6.67-2.87.58-.06,1.18-.04,1.77-.04,20.28,0,40.57,0,60.85,0,.5,0,1,0,1.5,0Z"/>
              <path class="cls-27" d="m231.69,52.68c4.61,0,9.21-.25,13.77.06,5.75.39,9.98,5.13,10.1,10.58.02.88.03,1.75.03,2.63,0,17.81,0,35.63,0,53.44,0,.2-.02.41,0,.61.1.86-.26.8-.87.45-2.88-1.65-5.97-2.95-9.15-3.83-3.51-.97-6.98-2.07-10.68-2.46-2.59-.27-5.19-.81-7.8-1.08-1.67-.17-3.35-.36-5.04-.42-6.89-.27-13.79-.39-20.68.03-3.92.24-7.83.17-11.74.1-2.23-.04-4.47-.41-6.69-.69-4.82-.61-8.59-2.97-11.58-6.52-1.61-1.91-2.36-4.3-3.06-6.65-1.06-3.56-1.16-7.15.36-10.57,1.8-4.04,4.77-7.12,8.9-9.06,7.7-3.62,15.36-3.42,22.97.24,3.85,1.86,7.23,4.35,10.26,7.29.59.57,1.06.73,1.89.43,4.84-1.81,9.74-3.49,14.57-5.34,3.74-1.44,7.58-2.6,11.23-4.24.25-.11.5-.21.77-.28,1.72-.46,1.76-.46,1.16-2.03-1.18-3.12-2.26-6.3-3.65-9.33-1.15-2.51-2.01-5.13-3-7.69-.71-1.84-1.8-3.58-2.07-5.69Z"/>
              <path class="cls-27" d="m255.56,204.48c-.01,4.53-3.31,7.32-7.54,7.56-4.38.25-7.42-3.62-7.66-7.03-.35-5.02,3.86-7.92,7.55-7.88,5.08.05,7.78,3.89,7.65,7.35Z"/>
              <path class="cls-27" d="m227.66,202.74c3.27,0,5.6,2.27,5.6,5.45,0,3.15-2.4,5.48-5.6,5.55-2.88.07-5.78-2.1-5.85-5.6-.06-2.82,2.75-5.79,5.85-5.41Z"/>
              <path class="cls-27" d="m214.29,208.34c.37,2.06-1.92,3.59-3.59,3.57-2.49-.03-3.87-1.86-4.08-3.77-.19-1.73,1.93-3.58,3.85-3.59,2.49,0,3.82,1.31,3.83,3.78Z"/>
            </g>
          </g>
          <g>
            <path class="cls-2" d="m124.57,158.92c.05-4.94,4.06-7.89,7.19-8.16,6.42-.56,9.43,4.48,9.38,8.24-.06,4.47-3.56,8.33-8.55,8.23-4.35-.09-7.99-3.59-8.02-8.3Zm8.26-6.07c-3.6,0-6.29,2.65-6.13,6.42.14,3.39,2.66,5.79,6.14,5.86,3.18.06,6.43-2.51,6.16-6.74-.22-3.36-3.52-5.93-6.16-5.54Z"/>
            <path class="cls-2" d="m204.45,167.02c-2.14-.03-3.62-.24-4.93-1.08-1.06-.68-1.59-1.73-1.89-2.9-.14-.53.16-.97.65-1.09.76-.19,1.23.03,1.4.64.45,1.6,1.33,2.27,2.94,2.17.34-.02.48.32.79.29,1.19-.11,2.41-.08,3.5-.66,1.26-.67,1.29-2.28.09-3.03-.97-.6-2.08-.83-3.14-1.22-1.41-.52-2.87-.91-4.15-1.72-1.21-.77-2.04-1.78-1.96-3.31.09-1.59.72-2.88,2.2-3.59,1.54-.74,3.17-.96,4.88-.77.85.1,1.66.26,2.43.62,1.49.69,2.21,1.94,2.42,3.51.15,1.13.07,1.17-.98,1.4-.49.11-.71-.15-.86-.52-.1-.24-.12-.5-.18-.75-.37-1.43-1.16-1.99-2.62-2.17-1.15-.14-2.26-.15-3.36.18-.58.18-1.15.39-1.49.96-.66,1.11-.4,2.12.75,2.86.81.52,1.72.8,2.62,1.09,1.37.45,2.78.76,4.06,1.44.97.51,1.79,1.14,2.11,2.3.54,1.98-.3,3.88-2.21,4.7-1.18.51-2.42.7-3.09.67Z"/>
            <path class="cls-2" d="m114,166.97c-1.7-.03-3.26-.17-4.63-1.16-.97-.7-1.35-1.76-1.78-2.78-.18-.44.25-.97.76-1.08.82-.17,1.21.02,1.39.73.25.99.8,1.69,1.79,2.01,1.8.57,3.58.47,5.31-.25.59-.25.93-.71.99-1.4.07-.8-.16-1.37-.9-1.75-1.33-.69-2.77-1.07-4.17-1.55-1.12-.39-2.22-.81-3.24-1.45-2.81-1.75-1.78-5.8.4-6.76.97-.43,1.97-.64,3.02-.77,1.19-.15,2.32.04,3.46.28,1.95.41,3.48,2.44,3.36,4.43-.03.49-.28.72-.71.76-.49.04-1.03.12-1.22-.54-.06-.21-.09-.42-.14-.63-.31-1.41-.91-1.94-2.63-2.23-1.26-.21-2.47-.1-3.67.29-.86.28-1.37.85-1.49,1.77-.12.9.37,1.47,1.06,1.92.92.6,1.97.92,3.01,1.24,1.24.39,2.51.72,3.67,1.31,1.01.52,1.93,1.16,2.14,2.41.37,2.11-.29,3.76-2.31,4.62-1.15.49-2.37.54-3.5.58Z"/>
            <path class="cls-2" d="m159.47,156.57c0-1.56,0-3.11,0-4.67,0-.96.25-1.25,1.05-1.25.77,0,1.04.33,1.04,1.28,0,2.96-.01,5.92,0,8.89.01,2.33,2,4.31,4.31,4.22,2.27-.09,4.1-1.83,4.12-4.14.02-2.59.02-5.19,0-7.78,0-.55-.11-1.08.03-1.63.18-.68.47-.89,1.29-.83.61.05.79.46.79.98,0,3.18.04,6.36,0,9.53-.05,2.78-2.18,5.22-4.95,5.82-3.09.66-6.08-.94-7.35-4.06-.21-.51-.34-1.09-.33-1.69.03-1.56.01-3.11,0-4.67Z"/>
            <path class="cls-2" d="m182.58,159.71c0,2.12,0,4.24,0,6.36,0,.53-.24.86-.74,1.1-.43.21-.72,0-.99-.21-.34-.25-.37-.66-.37-1.06,0-4.11-.01-8.22.02-12.32,0-.61-.17-.77-.75-.72-.62.05-1.25.02-1.88,0-.69-.01-1.17-.46-1.15-1.05.02-.56.5-1.01,1.13-1.02,2.42-.01,4.84-.01,7.26,0,.65,0,1.08.46,1.07,1.05-.01.6-.44,1-1.1,1.01-.67.01-1.34.03-2.01,0-.4-.02-.51.11-.51.51.02,2.12,0,4.24,0,6.36Z"/>
            <path class="cls-2" d="m145.8,158.94c0-2.33,0-4.67,0-7,0-.83.36-1.28,1.02-1.29.66-.01,1.09.5,1.09,1.32,0,4.13.02,8.25-.02,12.38,0,.62.18.74.76.73,1.62-.04,3.24-.02,4.86,0,.86,0,1.32.41,1.31,1.09,0,.54-.37.99-.9.99-2.4.02-4.8.02-7.2,0-.65,0-.92-.38-.92-1.15,0-2.23,0-4.45,0-6.68,0-.13,0-.26,0-.39Z"/>
            <path class="cls-2" d="m190.85,158.89c0-2.33,0-4.67,0-7,0-.93.28-1.25,1.08-1.24.71,0,1.01.38,1.01,1.26,0,4.64,0,9.29,0,13.93,0,.15.01.31-.01.45-.11.64-.6.98-1.19.93-.51-.04-.88-.43-.89-1.01,0-.93,0-1.86,0-2.79,0-1.51,0-3.02,0-4.54Z"/>
          </g>
        </g>
        <g class="cls-14">
          <rect class="cls-10" x="111.44" y="-28.47" width="34.8" height="233.8" transform="translate(113.85 -67.12) rotate(50.03)"/>
          <rect class="cls-10" x="145.34" y="-6.44" width="13.69" height="233.8" transform="translate(139.09 -77.13) rotate(50.03)"/>
          <rect class="cls-10" x="207.23" y="63.42" width="10" height="233.8" transform="translate(214.11 -98.17) rotate(50.03)"/>
          <rect class="cls-10" x="217.39" y="77.32" width="18.68" height="233.8" transform="translate(229.94 -104.3) rotate(50.03)"/>
        </g>
      </g>
    </g>
  </g>
</svg>