<?xml version="1.0" encoding="utf-8"?>
<!-- Generator: Adobe Illustrator 27.4.1, SVG Export Plug-In . SVG Version: 6.00 Build 0)  -->
<svg version="1.1" id="Camada_1" xmlns="http://www.w3.org/2000/svg" xmlns:xlink="http://www.w3.org/1999/xlink" x="0px" y="0px"
	 viewBox="0 0 324.4 304.8" style="enable-background:new 0 0 324.4 304.8;" xml:space="preserve">
<style type="text/css">
	.st0{fill:#CD970F;}
	.st1{fill:#F4B810;}
	.st2{fill:#FFFFFF;}
	.st3{clip-path:url(#SVGID_00000118364693445708939150000017195660685024174737_);}
	.st4{fill:#673AB7;}
	.st5{clip-path:url(#SVGID_00000134248973546114145800000011975161537654302911_);}
	.st6{opacity:0.28;fill:#DFD9E2;enable-background:new    ;}
</style>
<g>
	<circle class="st0" cx="168.2" cy="151.9" r="128.2"/>
	<circle class="st1" cx="156.2" cy="153" r="128.2"/>
	<g>
		<circle class="st2" cx="156.2" cy="153" r="102.2"/>
		<g>
			<defs>
				<circle id="SVGID_1_" cx="156.2" cy="153" r="96.9"/>
			</defs>
			<clipPath id="SVGID_00000021116014313979351810000009717853094538624653_">
				<use xlink:href="#SVGID_1_"  style="overflow:visible;"/>
			</clipPath>
			<g style="clip-path:url(#SVGID_00000021116014313979351810000009717853094538624653_);">
				<g>
					<path class="st4" d="M149,58.5c-3.1,1.6-6.1,3.1-8.9,5c-9.3,6-15.9,14.2-20.5,24c-2.1,4.5-3.8,9.2-4.7,14
						c-1.2,6.2-1.3,12.6-0.3,18.9c1.5,9.3,4.8,18,10.3,25.8c6.4,9.1,15.1,15.4,25.8,19.1c3.9,1.4,8,2,12.1,2.5
						c4.6,0.6,9.2,0.5,13.9,0.4c4.1-0.1,8.2-0.3,12.4-0.5c3.4-0.1,6.9-0.2,10.3-0.5c4.4-0.3,8.8-0.3,13.2-0.1
						c5.9,0.2,11.9,0.5,17.5,2.9c1.5,0.6,2.9,1.6,4.3,2.4c3,1.7,5.1,4.1,6.9,6.8c2.6,4.1,4.1,8.5,4.4,13.3c0.3,4-0.3,7.7-2,11.3
						c-2.4,5.1-6,9-11,11.7c-3.8,2-7.8,3.5-12.1,4.3c-3.7,0.7-7.3,0.9-11,0.9c-2.2,0-4.3-0.8-6.4-1.4c-7.7-2.1-13.5-6.9-18.3-12.9
						c-0.4-0.5-0.7-1-1.1-1.5c-1.2-1.6-1.5-1.6-3.4-0.7c-1.7,0.8-3.5,1.4-5.3,2.1c-7.8,2.8-15.5,5.6-23.3,8.4c-2.7,1-2.7,1-1.6,3.6
						c1.9,4.8,3.7,9.6,5.6,14.4c2.1,5.5,4.2,11,6.4,16.6c0.5,1.3,0.5,1.4-1,1.3c-20.7-0.4-41.5-0.1-62.3-0.2
						c-8.9,0-17.8,0.1-26.6-0.1c-3.9-0.1-7.1-2-9.6-4.9c-2-2.4-3.2-5.1-3.2-8.1c0.4-55.2,0-110.4,0.2-165.5c0-3.9,1.5-7.1,4.2-9.8
						c2.2-2.1,5-3.1,8-3.5c0.7-0.1,1.4,0,2.1,0c24.4,0,48.9,0,73.3,0C147.9,58.5,148.5,58.5,149,58.5L149,58.5z"/>
					<path class="st4" d="M228.3,58.5c5.6,0,11.1-0.3,16.6,0.1c6.9,0.5,12,6.2,12.2,12.7c0,1.1,0,2.1,0,3.2c0,21.5,0,42.9,0,64.4
						c0,0.2,0,0.5,0,0.7c0.1,1-0.3,1-1,0.5c-3.5-2-7.2-3.6-11-4.6c-4.2-1.2-8.4-2.5-12.9-3c-3.1-0.3-6.3-1-9.4-1.3
						c-2-0.2-4-0.4-6.1-0.5c-8.3-0.3-16.6-0.5-24.9,0c-4.7,0.3-9.4,0.2-14.2,0.1c-2.7-0.1-5.4-0.5-8.1-0.8c-5.8-0.7-10.4-3.6-14-7.8
						c-1.9-2.3-2.8-5.2-3.7-8c-1.3-4.3-1.4-8.6,0.4-12.7c2.2-4.9,5.8-8.6,10.7-10.9c9.3-4.4,18.5-4.1,27.7,0.3
						c4.6,2.2,8.7,5.2,12.4,8.8c0.7,0.7,1.3,0.9,2.3,0.5c5.8-2.2,11.7-4.2,17.6-6.4c4.5-1.7,9.1-3.1,13.5-5.1
						c0.3-0.1,0.6-0.3,0.9-0.3c2.1-0.5,2.1-0.6,1.4-2.4c-1.4-3.8-2.7-7.6-4.4-11.2c-1.4-3-2.4-6.2-3.6-9.3
						C229.9,63.2,228.6,61.1,228.3,58.5L228.3,58.5z"/>
					<path class="st4" d="M257,241.5c0,5.5-4,8.8-9.1,9.1c-5.3,0.3-8.9-4.4-9.2-8.5c-0.4-6.1,4.6-9.5,9.1-9.5
						C253.9,232.7,257.2,237.3,257,241.5z"/>
					<path class="st4" d="M223.4,239.4c3.9,0,6.7,2.7,6.7,6.6c0,3.8-2.9,6.6-6.8,6.7c-3.5,0.1-7-2.5-7.1-6.7
						C216.3,242.5,219.6,238.9,223.4,239.4L223.4,239.4z"/>
					<path class="st4" d="M207.3,246.1c0.4,2.5-2.3,4.3-4.3,4.3c-3,0-4.7-2.2-4.9-4.5c-0.2-2.1,2.3-4.3,4.6-4.3
						C205.7,241.6,207.3,243.2,207.3,246.1L207.3,246.1z"/>
				</g>
			</g>
		</g>
		<g>
			<path class="st2" d="M99.1,186.6c0.1-5.9,4.9-9.5,8.7-9.8c7.7-0.7,11.4,5.4,11.3,9.9c-0.1,5.4-4.3,10-10.3,9.9
				C103.6,196.5,99.2,192.3,99.1,186.6z M109.1,179.3c-4.3,0-7.6,3.2-7.4,7.7c0.2,4.1,3.2,7,7.4,7.1c3.8,0.1,7.8-3,7.4-8.1
				C116.3,181.9,112.3,178.8,109.1,179.3L109.1,179.3z"/>
			<path class="st2" d="M195.4,196.3c-2.6,0-4.4-0.3-5.9-1.3c-1.3-0.8-1.9-2.1-2.3-3.5c-0.2-0.6,0.2-1.2,0.8-1.3
				c0.9-0.2,1.5,0,1.7,0.8c0.5,1.9,1.6,2.7,3.6,2.6c0.4,0,0.6,0.4,1,0.3c1.4-0.1,2.9-0.1,4.2-0.8c1.5-0.8,1.6-2.8,0.1-3.7
				c-1.2-0.7-2.5-1-3.8-1.5c-1.7-0.6-3.5-1.1-5-2.1c-1.5-0.9-2.5-2.1-2.4-4c0.1-1.9,0.9-3.5,2.7-4.3c1.9-0.9,3.8-1.2,5.9-0.9
				c1,0.1,2,0.3,2.9,0.7c1.8,0.8,2.7,2.3,2.9,4.2c0.2,1.4,0.1,1.4-1.2,1.7c-0.6,0.1-0.9-0.2-1-0.6c-0.1-0.3-0.1-0.6-0.2-0.9
				c-0.4-1.7-1.4-2.4-3.1-2.6c-1.4-0.2-2.7-0.2-4,0.2c-0.7,0.2-1.4,0.5-1.8,1.1c-0.8,1.3-0.5,2.6,0.9,3.4c1,0.6,2.1,1,3.2,1.3
				c1.7,0.5,3.4,0.9,4.9,1.7c1.2,0.6,2.2,1.4,2.5,2.8c0.7,2.4-0.4,4.7-2.7,5.7C197.7,196.2,196.2,196.4,195.4,196.3L195.4,196.3z"/>
			<path class="st2" d="M86.4,196.3c-2,0-3.9-0.2-5.6-1.4c-1.2-0.8-1.6-2.1-2.1-3.4c-0.2-0.5,0.3-1.2,0.9-1.3c1-0.2,1.5,0,1.7,0.9
				c0.3,1.2,1,2,2.2,2.4c2.2,0.7,4.3,0.6,6.4-0.3c0.7-0.3,1.1-0.9,1.2-1.7c0.1-1-0.2-1.7-1.1-2.1c-1.6-0.8-3.3-1.3-5-1.9
				c-1.4-0.5-2.7-1-3.9-1.7c-3.4-2.1-2.2-7,0.5-8.2c1.2-0.5,2.4-0.8,3.6-0.9c1.4-0.2,2.8,0.1,4.2,0.3c2.4,0.5,4.2,2.9,4.1,5.3
				c0,0.6-0.3,0.9-0.9,0.9c-0.6,0-1.2,0.1-1.5-0.6c-0.1-0.3-0.1-0.5-0.2-0.8c-0.4-1.7-1.1-2.3-3.2-2.7c-1.5-0.3-3-0.1-4.4,0.3
				c-1,0.3-1.7,1-1.8,2.1c-0.1,1.1,0.4,1.8,1.3,2.3c1.1,0.7,2.4,1.1,3.6,1.5c1.5,0.5,3,0.9,4.4,1.6c1.2,0.6,2.3,1.4,2.6,2.9
				c0.4,2.5-0.3,4.5-2.8,5.6C89.2,196.2,87.8,196.3,86.4,196.3L86.4,196.3z"/>
			<path class="st2" d="M141.2,183.7c0-1.9,0-3.7,0-5.6c0-1.2,0.3-1.5,1.3-1.5c0.9,0,1.2,0.4,1.3,1.5c0,3.6,0,7.1,0,10.7
				c0,2.8,2.4,5.2,5.2,5.1c2.7-0.1,4.9-2.2,5-5c0-3.1,0-6.3,0-9.4c0-0.7-0.1-1.3,0-2c0.2-0.8,0.6-1.1,1.6-1c0.7,0.1,1,0.5,1,1.2
				c0,3.8,0.1,7.7,0,11.5c-0.1,3.3-2.6,6.3-6,7c-3.7,0.8-7.3-1.1-8.9-4.9c-0.3-0.6-0.4-1.3-0.4-2
				C141.2,187.5,141.2,185.6,141.2,183.7L141.2,183.7z"/>
			<path class="st2" d="M169.1,187.5c0,2.6,0,5.1,0,7.7c0,0.6-0.3,1-0.9,1.3c-0.5,0.3-0.9,0-1.2-0.3c-0.4-0.3-0.4-0.8-0.4-1.3
				c0-5,0-9.9,0-14.9c0-0.7-0.2-0.9-0.9-0.9c-0.8,0.1-1.5,0-2.3,0c-0.8,0-1.4-0.5-1.4-1.3c0-0.7,0.6-1.2,1.4-1.2c2.9,0,5.8,0,8.8,0
				c0.8,0,1.3,0.5,1.3,1.3c0,0.7-0.5,1.2-1.3,1.2c-0.8,0-1.6,0-2.4,0c-0.5,0-0.6,0.1-0.6,0.6C169.1,182.4,169,185,169.1,187.5
				L169.1,187.5z"/>
			<path class="st2" d="M124.7,186.6c0-2.8,0-5.6,0-8.4c0-1,0.4-1.5,1.2-1.6c0.8,0,1.3,0.6,1.3,1.6c0,5,0,9.9,0,14.9
				c0,0.7,0.2,0.9,0.9,0.9c2,0,3.9,0,5.9,0c1,0,1.6,0.5,1.6,1.3c0,0.7-0.4,1.2-1.1,1.2c-2.9,0-5.8,0-8.7,0c-0.8,0-1.1-0.5-1.1-1.4
				c0-2.7,0-5.4,0-8C124.7,186.9,124.7,186.7,124.7,186.6L124.7,186.6z"/>
			<path class="st2" d="M179,186.5c0-2.8,0-5.6,0-8.4c0-1.1,0.3-1.5,1.3-1.5c0.9,0,1.2,0.5,1.2,1.5c0,5.6,0,11.2,0,16.8
				c0,0.2,0,0.4,0,0.5c-0.1,0.8-0.7,1.2-1.4,1.1c-0.6,0-1.1-0.5-1.1-1.2c0-1.1,0-2.2,0-3.4C179,190.2,179,188.4,179,186.5z"/>
		</g>
	</g>
	<g>
		<defs>
			<circle id="SVGID_00000044882965389511126940000008639464479063405448_" cx="156.2" cy="153" r="128.2"/>
		</defs>
		<clipPath id="SVGID_00000092434009059939549690000014266433790999647654_">
			<use xlink:href="#SVGID_00000044882965389511126940000008639464479063405448_"  style="overflow:visible;"/>
		</clipPath>
		<g style="clip-path:url(#SVGID_00000092434009059939549690000014266433790999647654_);">
			
				<rect x="-39.2" y="77.1" transform="matrix(0.7664 -0.6424 0.6424 0.7664 -39.2579 88.2477)" class="st6" width="281.8" height="41.9"/>
			
				<rect x="-12.3" y="112.2" transform="matrix(0.7664 -0.6424 0.6424 0.7664 -47.3425 110.7334)" class="st6" width="281.8" height="16.5"/>
			
				<rect x="66.7" y="209.6" transform="matrix(0.7664 -0.6424 0.6424 0.7664 -89.982 183.7431)" class="st6" width="281.8" height="12"/>
			
				<rect x="82.3" y="219.8" transform="matrix(0.7664 -0.6424 0.6424 0.7664 -96.2636 197.3194)" class="st6" width="281.8" height="22.5"/>
		</g>
	</g>
</g>
</svg>
